<svg xmlns="http://www.w3.org/2000/svg" width="96" height="96" viewBox="0 0 96 96"><path d="M46.14,7.49a3.21,3.21,0,0,0-.69,4.83c.33.46.56.95.49,1.07a9,9,0,0,1-1.68,1,9.61,9.61,0,0,0-4.5,4.35l-.71,1.5-.44-.63a1.3,1.3,0,0,0-.91-.66c-.28,0-.51-.13-.51-.28,0-.33-1.76-.08-2.14.3-.15.13,0,.84.31,1.81s.91,3,1.35,4.75a43.88,43.88,0,0,0,3.5,9.41,14,14,0,0,1,1,2.32c0,.13-.56.53-1.27.89-.94.48-1.28.79-1.28,1.22a2,2,0,0,1-1.27,2,1.29,1.29,0,0,0-.86.84c-.33.89.3,1.57,1.63,1.8.84.13,1,.28,1.14.92a3,3,0,0,0,2.09,1.88,1.3,1.3,0,0,1,.73.74c.28.84.18,9.28-.15,13-.56,6.48-2.75,12.59-6,16.56a7.55,7.55,0,0,0-1.42,2.23c0,.82-.46,1.4-1.58,2.06a13.52,13.52,0,0,0-4.4,4.81c-.82,1.73-.87,3.66-.13,4.6a3.27,3.27,0,0,1,.51.77,6.08,6.08,0,0,1-1,.79c-.92.63-1,.76-.94,1.62.1,1.35,1.06,1.73,5.16,2.14,4.37.41,24.82.41,30.11,0,6.21-.48,7.4-.86,7.4-2.36a1.68,1.68,0,0,0-.43-1.09c-.25-.18-.74-.56-1-.82l-.61-.48.56-.94c1.42-2.42-.72-6.54-4.71-9.16-.94-.61-1.32-1-1.5-1.7a7.48,7.48,0,0,0-1.22-2.09C57,72.75,54.81,66.67,54.23,59c-.31-3.87-.41-10.68-.15-11.47a2.8,2.8,0,0,1,1.29-1c.87-.41,1.17-.74,1.35-1.38s.38-.89,1.4-1.17c1.37-.38,1.88-1,1.45-1.85a2.44,2.44,0,0,0-1-.79c-.59-.21-.79-.49-1-1.4s-.46-1.2-1.53-1.76a3.55,3.55,0,0,1-1.24-.79c0-.1.51-1.19,1.12-2.46a43,43,0,0,0,3.46-9.64c.53-2.14,1.17-4.4,1.37-5.06C61,19,61,19,60.56,18.81a1,1,0,0,0-.84.1c-.23.2-.46.18-.81-.1-.74-.56-1.22-.46-1.73.41l-.46.78L56,18.66a9.45,9.45,0,0,0-4.3-4.17,9.91,9.91,0,0,1-1.86-1.12c-.07-.1.16-.59.49-1a2.89,2.89,0,0,0,.48-3.25A3.13,3.13,0,0,0,46.14,7.49Z"/></svg>