<svg xmlns="http://www.w3.org/2000/svg" width="96" height="96" viewBox="0 0 96 96"><path d="M47.08,18.16c-.38.05-.66.25-.66.4s-.49.26-1.1.26c-1.47,0-1.79.4-1.79,2.33v1.62l-1.44.89-1.44.89V22c0-3.4-.17-3.72-2.13-3.72a6.75,6.75,0,0,0-3.77.92,20.17,20.17,0,0,0-.44,4.3l-.14,4-.92.72c-.52.41-1,.92-1,1.15a6.61,6.61,0,0,0,1.55,2.08,8.77,8.77,0,0,1,1.73,2.45,10.17,10.17,0,0,0,1.18,2.28,10.28,10.28,0,0,1,1.33,2.62c.49,1.76.17,8.84-.9,19.79C35.73,73.94,34.66,77.69,31.09,80,28,82,26,85.07,26,87.78c0,1,.14,1.7.43,1.93.66.54.52,1.06-.55,1.7a1.92,1.92,0,0,0-1,2.5c.55,1.44,4.87,1.88,21.21,2,13,.14,20.46-.12,23-.81,1.93-.52,2.13-2.27.4-3.46l-1-.72c-.06,0,.17-.51.51-1.06A4.59,4.59,0,0,0,69.47,88c0-2.5-2.57-6.31-5.42-8.06-2.3-1.42-3.86-5.13-4.64-11.16-.6-4.58-1.76-21-1.76-25,0-4.73.21-5.65,1.59-7.61a13.12,13.12,0,0,0,1.35-2.42,7.08,7.08,0,0,1,1.47-2.16c2.11-2.1,2.31-2.91.95-3.54-.86-.38-1-1.33-1-5.51a16.36,16.36,0,0,0-.29-3.77c-.46-.72-5.3-.41-5.82.4a10.13,10.13,0,0,0-.23,2.68,6.33,6.33,0,0,1-.29,2.54c-.14.08-.29,0-.29-.09a3.51,3.51,0,0,0-1.15-.89l-1.15-.64V18.3l-.9-.17A19.62,19.62,0,0,0,47.08,18.16Z"/></svg>