<svg xmlns="http://www.w3.org/2000/svg" width="96" height="96" viewBox="0 0 96 96"><path d="M45.86,28.43c-4.48,1.41-7.51,4.93-7.51,8.76,0,3,.63,4.46,2.89,6.66,1.22,1.18,2,2.25,1.91,2.59s-.83.83-1.84,1.18C37.62,48.93,37,49.34,37,50.17c0,.59.56,1.17,2.09,2.21A10.92,10.92,0,0,1,43.64,58c.62,2.07.52,8.63-.18,10.9A12.17,12.17,0,0,1,39,75.33a8.34,8.34,0,0,0-2.26,2.45c-.35.86-.83,1.24-2.08,1.66a9.83,9.83,0,0,0-6.4,7.11c-.39,1.55-.35,1.83.31,2.9l.73,1.17-1.22.72c-1,.56-1.21.9-1.21,1.76s.2,1.14,1.14,1.56c4.11,1.69,36.83,2,40.76.38.94-.42,1.22-.73,1.22-1.38,0-.87-.1-1-1.7-2.25l-.87-.62.76-1c.91-1.14.94-1.56.25-3.87a9.77,9.77,0,0,0-6.2-6.35,2.27,2.27,0,0,1-1.8-1.45,12.21,12.21,0,0,0-2.65-3,12,12,0,0,1-3.23-4.14c-1-2.21-1.08-2.45-1.08-6.94,0-5.76.49-7.42,2.89-9.73A20.39,20.39,0,0,1,59.5,51.9c2.47-1.52,1.84-2.66-2.23-4a8.2,8.2,0,0,1-2.61-1.28c-.38-.44-.31-.65.56-1.38,3.37-2.76,4.31-4.28,4.59-7.35.31-3.41-2-7-5.6-8.8A12.68,12.68,0,0,0,45.86,28.43Z"/></svg>