<svg xmlns="http://www.w3.org/2000/svg" width="96" height="96" viewBox="0 0 96 96"><defs><style>.a{fill:#fff;}</style></defs><path class="a" d="M46,0C44.52.22,44.31.55,44.4,2.3l.08,1.55L43.3,3.78c-1.7-.11-2.12.29-2.12,1.94s.56,2.35,2.16,2.4a10.74,10.74,0,0,1,1.18.07,4.69,4.69,0,0,1-.4,1.2,6.83,6.83,0,0,0-.47,1.72,1.5,1.5,0,0,1-.71,1.06c-.73.57-.89,1.18-.42,1.65s0,.64-2.29,1.18c-3.82.92-5.3,2-5.3,3.8,0,2.19,1.65,7.23,3.82,11.57,1,2.1,1.48,3.28,1.34,3.44a4.2,4.2,0,0,1-1.27.66c-.94.38-1.06.5-1.42,1.67s-.49,1.32-1.22,1.7a2.42,2.42,0,0,0-1.06,1c-.26.75.66,1.65,1.91,1.84.8.11,1,.25,1.11.77a3.23,3.23,0,0,0,2,2,3.09,3.09,0,0,1,1.06.75c.61,1.65.23,14-.59,18.29a30,30,0,0,1-6,13.56,5.93,5.93,0,0,0-1.15,2c-.21,1-.5,1.34-2,2.33-3.37,2.19-5.63,6.11-5,8.61A3.29,3.29,0,0,0,27,90.23c.57.48.43.81-.7,1.61-.92.63-1.06.87-1.06,1.55,0,1.49.75,1.82,5.18,2.31,3.7.4,25.27.4,31.11,0,5-.33,7.8-.78,8.63-1.32a1.18,1.18,0,0,0,.56-1.2c0-.83-.14-1-1.62-2.17l-.54-.43.49-.8a4.93,4.93,0,0,0,.14-4,12.4,12.4,0,0,0-4.83-5.66c-1-.5-1.88-1.46-1.88-2s-.36-1-2.2-3.4c-3-3.86-5.39-10.23-6.05-16.4a137,137,0,0,1-.38-13.86c.09-.42.4-.68,1-.87.91-.31,2-1.46,2-2.15,0-.49.14-.56,1.48-.8,1.82-.3,2-2.1.31-2.8-.68-.29-.87-.54-1.15-1.49s-.43-1.2-1.54-1.72a15.37,15.37,0,0,1-1.36-.75,11.58,11.58,0,0,1,1-2.59c2.31-4.7,3.52-8.44,3.75-11.55l.14-1.84-.87-.83c-.85-.8-3.77-1.93-6.08-2.35-1-.19-1-.15-.61-.95.23-.54.19-.68-.47-1.36a2.59,2.59,0,0,1-.76-1.16,6.3,6.3,0,0,0-.47-1.51,3.77,3.77,0,0,1-.4-1.36c0-.15.54-.26,1.11-.29a1.62,1.62,0,0,0,1.55-.66,2.46,2.46,0,0,0,.07-3.06c-.44-.59-.63-.64-1.72-.57l-1.2.07.07-1.36C49.83.88,49.47.32,48.27.08c-.4-.09-.9-.19-1.08-.21A3.9,3.9,0,0,0,46,0Z"/></svg>