<svg xmlns="http://www.w3.org/2000/svg" width="96" height="96" viewBox="0 0 96 96"><defs><style>.a{fill:#fff;}</style></defs><path class="a" d="M46.18,12.1a3.34,3.34,0,0,0-1.57,2.54,3.15,3.15,0,0,0,.75,1.4l.72.94-.5,1.27C45,19.7,44.16,21.09,41.5,24.8,38.56,28.86,38,29.93,38,31.85A4.94,4.94,0,0,0,38.83,35a29.33,29.33,0,0,0,1.92,3,8,8,0,0,1,1.12,1.77c0,.15-.27.4-.62.55-.85.37-.8,1.17.07,1.59A1,1,0,0,1,42,43c0,.62-.18.82-1.1,1.27s-1.17.7-1.37,1.47a2.16,2.16,0,0,1-1,1.37c-.85.47-1.12,1.49-.5,2a3,3,0,0,0,1.2.48c.52.12.82.34.87.64a2.71,2.71,0,0,0,1.69,1.75c.77.32.8.37,1,2.41a90.59,90.59,0,0,1-.62,12.52,28.32,28.32,0,0,1-4.93,12,9.45,9.45,0,0,0-1.44,2.37,2.9,2.9,0,0,1-1.45,1.67,9.08,9.08,0,0,0-3.63,3.91c-.82,1.64-1,3.46-.37,4.28s.44.92-.5,1.54c-.65.43-.87.72-.87,1.27,0,1.6,1.32,1.89,10,2.29,6.23.3,17.93.15,23-.3,3.19-.27,4.59-.62,5-1.24A1.69,1.69,0,0,0,66,92.45c-.84-.5-.92-.82-.35-1.72s.3-2.84-.69-4.51a9.47,9.47,0,0,0-3.34-3.41,3.2,3.2,0,0,1-1.52-1.69A10.45,10.45,0,0,0,58.6,78.7a27.15,27.15,0,0,1-3.86-7.49C53.67,67.92,53.3,65,53.15,58.59l-.15-6,1.17-.69a3.12,3.12,0,0,0,1.42-1.5c.17-.55.42-.82.72-.82a2.43,2.43,0,0,0,1.85-.92c.19-.52-.25-1.25-1-1.62a1.91,1.91,0,0,1-.92-1.29c-.22-.8-.47-1-1.39-1.5S53.7,43.57,53.7,43a1,1,0,0,1,.7-1.07c.84-.42.89-1.22.05-1.59-.35-.15-.63-.38-.63-.47a21.91,21.91,0,0,1,1.62-2.57c2-3,2.52-4.56,2.12-6.47-.3-1.47-.92-2.54-4.41-7.4a40.44,40.44,0,0,1-2.94-4.8l-.69-1.67.62-.67a2.14,2.14,0,0,0,.6-2.64A3.32,3.32,0,0,0,46.18,12.1Z"/></svg>